<svg width="108" height="42" viewBox="0 0 108 42" fill="none" xmlns="http://www.w3.org/2000/svg">
<g clip-path="url(#clip0_163_76)">
<path d="M10.5489 29.395C10.5023 29.4019 10.4739 29.4088 10.4454 29.4097C9.80998 29.4441 9.1754 29.4804 8.53996 29.5105C8.37011 29.5192 8.20025 29.5148 8.0304 29.5114C7.91917 29.5088 7.8571 29.4493 7.83727 29.3364C7.72691 28.7104 7.60447 28.0871 7.50446 27.4594C7.426 26.9636 7.36392 26.4644 7.31391 25.9652C7.25873 25.4065 7.21131 24.8461 7.18717 24.2848C7.14923 23.3838 7.11474 22.4819 7.11302 21.5801C7.11044 20.7222 7.13889 19.8643 7.17769 19.0073C7.22166 18.033 7.28287 17.0587 7.35444 16.0853C7.42514 15.1196 7.52343 14.1565 7.5993 13.1909C7.6631 12.3804 7.72173 11.5691 7.76484 10.7578C7.80881 9.93866 7.82865 9.11699 7.864 8.29704C7.86658 8.22893 7.90366 8.16081 7.93125 8.06942C7.78898 8.00476 7.61654 7.92543 7.4441 7.8487C6.22323 7.30465 5.07392 6.6399 4.01945 5.8165C2.28213 4.46026 0.964688 2.77898 0.0973166 0.749363C-0.0121817 0.49329 -0.0233897 0.369134 0.0343778 0.0940929C0.0645528 0.0897822 0.099904 0.0820216 0.135255 0.0811608C0.889678 0.0544326 1.6441 0.0277044 2.39766 0.00528738C2.65632 -0.00247323 2.91584 0.00614819 3.1745 0.000113638C3.34694 -0.00333626 3.43402 0.0716761 3.4961 0.237218C3.95996 1.46413 4.61523 2.58153 5.44984 3.59548C6.35946 4.70082 7.42686 5.6294 8.61756 6.41918C9.87464 7.25378 11.224 7.89784 12.6406 8.41171C13.9071 8.87126 15.2022 9.22563 16.5187 9.50239C17.4663 9.70156 18.4225 9.84986 19.3855 9.9516C20.0322 10.0188 20.6814 10.0723 21.3298 10.1206C21.5281 10.1361 21.729 10.1094 21.9282 10.1102C22.6826 10.1128 23.437 10.118 24.1923 10.124C24.2578 10.124 24.3242 10.1335 24.3932 10.1671C24.2414 10.1818 24.0906 10.2068 23.9379 10.2111C22.4067 10.2559 20.8763 10.3103 19.345 10.2241C18.4587 10.174 17.5732 10.1206 16.6886 10.0542C15.4272 9.96108 14.1753 9.78864 12.938 9.52739C12.1793 9.36789 11.4275 9.17907 10.673 9.00404C10.6454 8.99715 10.6161 9.00316 10.5558 9.00316C10.5437 9.25406 10.5325 9.50323 10.5204 9.75154C10.4946 10.268 10.473 10.7853 10.4394 11.3018C10.4014 11.8993 10.354 12.4959 10.3066 13.0934C10.2652 13.6237 10.2152 14.1531 10.1721 14.6842C10.11 15.4576 10.0445 16.231 9.9919 17.0052C9.94189 17.7579 9.8893 18.5106 9.86947 19.2642C9.84101 20.3359 9.83067 21.4085 9.83153 22.4802C9.83241 23.1389 9.85567 23.7976 9.8962 24.4537C9.93758 25.1168 9.99621 25.7807 10.079 26.4402C10.1747 27.2024 10.3023 27.9603 10.4204 28.719C10.4549 28.9432 10.504 29.1648 10.5489 29.395Z" fill="black"/>
<path d="M45.1266 29.4464C44.9912 29.4464 44.8964 29.4446 44.8016 29.4464C44.3653 29.4533 43.929 29.4705 43.4919 29.4653C42.9418 29.4593 42.4038 29.3722 41.8891 29.1644C40.7518 28.704 40.0353 27.8849 39.7361 26.6917C39.5491 25.9459 39.4965 25.1906 39.512 24.4258C39.5266 23.6705 39.6223 22.923 39.7172 22.1746C39.8025 21.5004 39.8715 20.8244 39.9448 20.1484C39.9646 19.9665 39.9724 19.945 40.1603 19.9458C40.7009 19.9493 41.2407 19.957 41.7813 19.9665C42.0615 19.9717 42.3417 19.9837 42.6366 19.9932C42.6366 20.1286 42.6495 20.2597 42.6348 20.3873C42.5408 21.1874 42.4425 21.9866 42.3417 22.7859C42.2399 23.6024 42.1873 24.4215 42.227 25.2432C42.2589 25.901 42.3572 26.552 42.5857 27.1762C42.8029 27.7685 43.1668 28.2565 43.6557 28.6463C43.8324 28.7877 44.0428 28.8903 44.2437 28.998C44.3946 29.0791 44.5498 29.1136 44.7317 29.0567C44.8593 29.0179 45.0093 29.0489 45.1783 29.0489C45.1973 28.7135 45.2223 28.3988 45.2309 28.0841C45.2576 27.1503 45.1611 26.2235 45.0809 25.2949C45.0059 24.4249 44.9481 23.5532 45.0222 22.6807C45.0783 22.0203 45.2231 21.3822 45.5163 20.7813C45.587 20.6373 45.681 20.5649 45.8431 20.5718C45.9905 20.5778 46.1388 20.5683 46.2871 20.5752C46.9363 20.6062 47.5856 20.6407 48.2529 20.6752C48.2408 20.7166 48.2322 20.7649 48.2124 20.8063C47.9028 21.4417 47.7666 22.1159 47.7183 22.8169C47.6692 23.5282 47.714 24.2352 47.7614 24.944C47.8261 25.9027 47.958 26.8572 47.9416 27.8211C47.9287 28.5988 47.8666 29.3705 47.6821 30.1301C47.3605 31.4484 46.5345 32.3347 45.33 32.902C44.7765 33.1633 44.1902 33.309 43.5867 33.39C43.1694 33.4452 42.7503 33.4875 42.3305 33.5245C41.651 33.584 40.9897 33.4607 40.3336 33.3047C39.3852 33.0779 38.4471 32.8167 37.5194 32.5141C37.0047 32.3459 36.5184 32.4666 36.0795 32.7494C35.2639 33.2754 34.7681 34.0341 34.5431 34.973C34.4508 35.3567 34.4232 35.7464 34.4422 36.1405C34.4758 36.8449 34.8966 37.3036 35.5407 37.4355C36.3391 37.5984 37.0486 37.37 37.6513 36.8259C37.9039 36.5974 38.0686 36.3051 38.1643 35.9818C38.2066 35.8378 38.2178 35.6749 38.2031 35.524C38.1747 35.236 38.0091 35.0705 37.7237 35.0196C37.2202 34.9308 36.7917 35.0791 36.4322 35.4438C36.0856 35.7956 35.7312 36.1413 35.351 36.5198C35.3648 36.4483 35.3673 36.4112 35.3794 36.3776C35.4674 36.1267 35.5432 35.8697 35.6502 35.6274C36.0312 34.7635 36.7934 34.4273 37.6168 34.6463C37.6668 34.6592 37.716 34.679 37.7617 34.7023C38.273 34.9636 38.6221 35.3757 38.8196 35.9068C38.9782 36.3327 38.8989 36.7535 38.6359 37.1096C38.0367 37.9192 37.2314 38.3684 36.2097 38.3468C35.9743 38.3425 35.7303 38.2494 35.5105 38.1528C34.9431 37.9054 34.4707 37.526 34.1292 37.0061C33.6568 36.2853 33.6249 35.505 33.8904 34.7083C34.1077 34.0539 34.4715 33.4814 34.9561 32.9883C35.0389 32.9038 35.132 32.8279 35.2061 32.7365C35.5389 32.3226 35.9942 32.1011 36.471 31.9079C36.6356 31.8415 36.7908 31.7519 36.959 31.6984C37.1754 31.6294 37.3978 31.5613 37.6229 31.5355C38.5575 31.4268 39.4981 31.4234 40.4379 31.4484C41.2441 31.4708 42.0494 31.5079 42.8555 31.5363C43.466 31.5579 44.0083 31.3768 44.467 30.9707C44.7265 30.7405 44.9205 30.4672 44.9834 30.1137C45.0197 29.9042 45.0723 29.6973 45.1266 29.4464Z" fill="black"/>
<path d="M100.775 12.828C100.773 12.8254 100.77 12.822 100.768 12.8194H100.583C100.584 12.822 100.584 12.8254 100.584 12.828H100.775ZM94.8769 23.5176C95.0924 23.6693 95.3037 23.8262 95.5235 23.9719C95.8925 24.2177 96.2633 24.4617 96.6392 24.697C97.0643 24.9635 97.5186 25.0204 98.0006 24.8712C98.6386 24.6738 98.7749 24.2599 98.6421 23.6857C98.6171 23.5796 98.5722 23.4744 98.5188 23.3787C98.1205 22.6631 97.5402 22.1872 96.7263 22.013C96.1486 21.8889 95.5821 21.9104 95.026 22.1217C94.3975 22.3588 93.7189 22.9916 93.8008 24.0306C93.8836 25.0764 94.2871 25.9869 94.9631 26.7801C95.2856 27.1578 95.6891 27.4268 96.1391 27.6337C96.7427 27.9105 97.3703 28.095 98.036 28.1251C99.2163 28.1795 100.146 27.6889 100.917 26.8189C101.299 26.3895 101.484 25.8946 101.582 25.3489C101.769 24.3211 101.88 23.2865 101.862 22.2398C101.856 21.8552 101.773 21.4905 101.628 21.1405C101.319 20.3947 100.871 19.7532 100.182 19.3049C100.084 19.2402 99.975 19.1919 99.8707 19.1367C99.7069 19.0514 99.5388 19.0402 99.3551 19.0738C99.1379 19.1143 98.9154 19.1247 98.6955 19.1514C98.4834 19.1773 98.2722 19.2126 98.0601 19.235C97.8911 19.2523 97.7213 19.2609 97.5505 19.2626C97.1143 19.2661 96.6771 19.2773 96.2417 19.2574C95.9253 19.2437 95.6097 19.1954 95.2968 19.1402C95.1873 19.1204 95.0803 19.0462 94.9881 18.9764C94.7631 18.8082 94.6199 18.5729 94.5001 18.3254C94.2009 17.7064 94.0569 17.0545 94.1319 16.3682C94.2087 15.6664 94.4966 15.0473 94.9234 14.4912C95.4382 13.8196 96.0926 13.3247 96.8539 12.9643C97.2039 12.7987 97.5824 12.7754 97.9584 12.7634C98.4834 12.747 99.0094 12.7565 99.5345 12.7487C99.8009 12.7444 100.067 12.7246 100.334 12.7185C100.942 12.7047 101.549 12.722 102.135 12.9022C102.372 12.9746 102.606 13.0824 102.815 13.2152C103.398 13.5851 103.629 14.155 103.645 14.8197C103.658 15.4181 103.509 15.9914 103.322 16.5553C103.283 16.6717 103.197 16.714 103.083 16.714C102.899 16.714 102.713 16.7209 102.529 16.7053C102.124 16.6726 101.72 16.62 101.315 16.5898C101.095 16.5734 100.873 16.5872 100.626 16.5872C100.643 16.5096 100.65 16.4553 100.667 16.4036C100.832 15.8725 100.96 15.3362 100.951 14.774C100.936 13.8204 100.444 13.3204 99.7276 13.0255C99.631 12.985 99.5422 12.9996 99.4508 13.0384C99.1275 13.1729 98.8309 13.3523 98.5559 13.5678C98.0144 13.9929 97.5738 14.5059 97.2238 15.0991C96.8082 15.8043 96.7211 16.5588 96.9022 17.346C96.978 17.6762 97.0867 17.9986 97.1936 18.3202C97.235 18.4453 97.3143 18.5565 97.3755 18.6746C97.4747 18.8634 97.604 18.9281 97.8377 18.9005C98.2843 18.8488 98.7387 18.841 99.1896 18.8419C99.9362 18.8436 100.685 18.8393 101.43 18.8902C102.257 18.9471 103.012 19.2195 103.554 19.8929C103.939 20.3688 104.221 20.9042 104.389 21.4957C104.522 21.9691 104.581 22.4519 104.558 22.9433C104.503 24.0978 104.388 25.2428 104.032 26.3507C103.869 26.8603 103.646 27.3449 103.372 27.801C103.053 28.3329 102.594 28.7252 102.037 29.0011C101.189 29.4219 100.279 29.559 99.3465 29.5624C97.9756 29.5676 96.6935 29.2201 95.5425 28.47C94.5958 27.8527 93.8362 27.0448 93.368 26.0059C92.755 24.6453 92.893 23.3451 93.7741 22.1312C94.0949 21.6906 94.4673 21.3069 94.9329 21.0137C95.2355 20.8223 95.5658 20.7154 95.9115 20.6861C96.9694 20.5939 97.9015 20.9258 98.6835 21.6311C99.2853 22.1734 99.4595 22.8735 99.2603 23.6547C99.1542 24.0728 98.9697 24.4591 98.7162 24.8126C98.1015 25.6679 96.9142 25.8783 96.0305 25.1894C95.7779 24.9919 95.5571 24.7678 95.3985 24.4841C95.2217 24.1685 95.0312 23.8616 94.8467 23.5503C94.857 23.54 94.8665 23.5288 94.8769 23.5176Z" fill="black"/>
<path d="M26.5152 20.9472C26.4411 20.9739 26.4066 20.9825 26.3747 20.9981C25.772 21.2878 25.2573 21.6904 24.8529 22.225C23.9364 23.4346 23.5993 24.7866 23.9174 26.2773C24.2269 27.7249 25.1107 28.6656 26.5152 29.1225C26.5601 29.1363 26.6109 29.1329 26.6765 29.1398C26.6635 29.0768 26.6592 29.0346 26.6463 28.9949C26.2842 27.8663 26.1324 26.7058 26.1134 25.5255C26.0919 24.177 26.2229 22.8406 26.4385 21.5102C26.4669 21.3369 26.4859 21.1619 26.5152 20.9472ZM26.5945 20.517C26.6868 20.0057 26.7773 19.5116 26.8661 19.0185C27.0058 18.2407 27.1455 17.463 27.2826 16.6845C27.3162 16.4957 27.3326 16.3034 27.3636 16.1146C27.3929 15.9404 27.4197 15.9171 27.5964 15.918C27.9146 15.9189 28.2327 15.9258 28.5509 15.9352C29.0234 15.9482 29.4967 15.9654 29.9692 15.9818C30.0045 15.9827 30.039 15.9939 30.0942 16.0034C29.9985 16.5733 29.908 17.1337 29.8097 17.6933C29.6622 18.5296 29.5019 19.3642 29.3596 20.2014C29.232 20.9515 29.1053 21.7016 29.007 22.456C28.8613 23.5709 28.7888 24.6909 28.8285 25.8177C28.8638 26.8498 29.0087 27.862 29.3036 28.8518C29.3363 28.9648 29.3734 29.076 29.4139 29.2062C29.3622 29.2251 29.3182 29.2536 29.2725 29.2571C28.8164 29.295 28.3595 29.3286 27.9034 29.364C27.6378 29.3838 27.3731 29.4174 27.1084 29.4226C26.717 29.4295 26.3247 29.4269 25.9332 29.4088C25.522 29.389 25.1107 29.351 24.7003 29.3131C22.9423 29.1527 21.6654 28.0353 21.2291 26.3859C20.798 24.7555 21.4179 22.7518 22.6862 21.6361C23.3199 21.0782 24.0614 20.7394 24.8917 20.6265C25.403 20.5575 25.9238 20.5575 26.4393 20.5264C26.4833 20.5239 26.5273 20.5204 26.5945 20.517Z" fill="black"/>
<path d="M35.5214 29.1452C35.5041 29.0711 35.4955 29.0219 35.4808 28.9754C35.2558 28.2615 35.1144 27.5303 35.0325 26.788C34.9463 26.0154 34.9385 25.2395 34.9713 24.4643C35.0127 23.4901 35.117 22.5209 35.2739 21.5579C35.3058 21.3656 35.3256 21.1707 35.355 20.95C35.2782 20.9767 35.2368 20.988 35.1989 21.0061C34.7005 21.2475 34.2574 21.5648 33.897 21.9855C32.8244 23.2383 32.4174 24.6782 32.7658 26.2965C33.0727 27.7226 33.9487 28.6581 35.336 29.1124C35.3886 29.1297 35.4455 29.1323 35.5214 29.1452ZM38.2563 29.228C38.0761 29.2556 37.9122 29.2926 37.7467 29.3039C37.0612 29.3513 36.3758 29.3987 35.6895 29.4297C35.3877 29.4427 35.0834 29.4254 34.7807 29.4073C34.3626 29.3832 33.9435 29.3495 33.5262 29.3108C31.7001 29.1409 30.4301 27.9071 30.043 26.2586C29.6679 24.6609 30.3318 22.5399 31.7156 21.4794C32.3079 21.025 32.9736 20.7258 33.7116 20.6284C34.2307 20.5603 34.7575 20.5569 35.2817 20.525C35.3248 20.5215 35.3688 20.5189 35.4308 20.5155C35.486 20.2335 35.5438 19.9533 35.5946 19.6714C35.7524 18.7988 35.9094 17.9263 36.062 17.0537C36.1146 16.7554 36.1516 16.4545 36.1999 16.1562C36.2378 15.9217 36.2465 15.9105 36.4827 15.9174C37.1337 15.9337 37.7838 15.957 38.4339 15.976C38.5951 15.9803 38.7555 15.9769 38.9365 15.9769C38.8969 16.239 38.8675 16.4718 38.8262 16.7029C38.6046 17.9461 38.3726 19.1877 38.1597 20.4327C38.001 21.357 37.8571 22.2839 37.7657 23.2185C37.676 24.1324 37.645 25.0481 37.6769 25.9646C37.7131 27.0104 37.8864 28.0356 38.2028 29.0349C38.22 29.0892 38.2338 29.1452 38.2563 29.228Z" fill="black"/>
<path d="M71.907 21.0835C71.5311 21.3551 71.2466 21.6793 71.0517 22.0785C70.8034 22.588 70.6569 23.1304 70.5887 23.6899C70.5008 24.4107 70.4922 25.1341 70.5249 25.8601C70.5749 26.974 70.9991 27.9216 71.7449 28.7346C71.8484 28.8484 71.9683 28.9459 72.0872 29.0562C72.1657 28.9959 72.2338 28.951 72.2933 28.8976C72.5347 28.6795 72.7692 28.4536 73.015 28.2406C73.1322 28.1389 73.1693 28.0259 73.1684 27.8742C73.165 26.624 73.1745 25.3738 73.1684 24.1236C73.1667 23.771 73.1564 23.4123 73.096 23.0648C72.9805 22.3983 72.6304 21.8414 72.1855 21.343C72.1028 21.2516 72.0045 21.174 71.907 21.0835ZM78.3106 29.7106C77.9502 29.7348 77.6208 29.7607 77.2915 29.7788C76.8483 29.8038 76.4051 29.8201 75.962 29.8443C75.8016 29.8529 75.6757 29.8012 75.574 29.6762C75.4153 29.4813 75.2489 29.2925 75.0868 29.1002C75.0489 29.0562 75.0127 29.0105 74.967 28.9536C74.9006 29.0019 74.8402 29.0433 74.7833 29.0881C74.3427 29.4322 73.8427 29.608 73.2857 29.6244C72.99 29.6331 72.6942 29.6322 72.3985 29.6382C72.1174 29.6425 71.8363 29.6572 71.5553 29.6555C71.2302 29.6537 70.9052 29.6434 70.581 29.6296C70.324 29.6184 70.093 29.5244 69.8774 29.3865C69.361 29.0554 68.9126 28.6553 68.5574 28.1509C68.2315 27.6871 68.0616 27.1628 67.9392 26.6197C67.7418 25.7402 67.6771 24.8496 67.7737 23.952C67.8461 23.2804 67.997 22.6285 68.3263 22.0267C68.691 21.3594 69.2368 20.9369 69.9688 20.7377C70.6051 20.5636 71.2544 20.5429 71.9053 20.5575C72.4675 20.5705 73.0296 20.5912 73.5909 20.6265C73.9867 20.6515 74.3324 20.8197 74.6359 21.0714C75.1946 21.5353 75.5386 22.1405 75.7507 22.8243C75.8223 23.0553 75.874 23.2993 75.8869 23.5399C75.9249 24.2236 76.0913 24.8823 76.2439 25.5436C76.4008 26.2205 76.6155 26.8818 76.8897 27.5215C77.2328 28.3234 77.6829 29.0571 78.3106 29.7106Z" fill="black"/>
<path d="M15.0653 24.2998C15.9835 24.1636 16.8578 24.3352 17.7338 24.3791C17.9579 23.3523 17.2251 21.5149 16.4293 21.0993C16.0387 21.389 15.7378 21.7538 15.5412 22.2047C15.3757 22.5866 15.2593 22.9832 15.1851 23.3911C15.1325 23.679 15.1075 23.9722 15.0653 24.2998ZM16.6577 29.0669C16.9259 28.8229 17.1871 28.5944 17.4372 28.3547C17.8226 27.9866 17.757 28.0262 18.233 28.0323C18.5287 28.0357 18.8236 28.0616 19.1185 28.0806C19.5151 28.1064 19.9117 28.134 20.3247 28.1625C20.2962 28.1995 20.2721 28.2409 20.2376 28.272C19.9315 28.5505 19.6315 28.8358 19.3142 29.1005C18.9158 29.4325 18.4459 29.5799 17.9295 29.6299C17.0854 29.7118 16.243 29.6368 15.4015 29.6144C14.6368 29.5946 14.0323 29.21 13.5245 28.647C12.9003 27.9555 12.5218 27.164 12.414 26.2329C12.3416 25.6069 12.2864 24.9827 12.3321 24.3533C12.3752 23.7618 12.4709 23.179 12.6873 22.6229C12.9563 21.9288 13.3633 21.3442 14.0341 20.9769C14.4221 20.7648 14.8402 20.6553 15.2817 20.6234C16.2059 20.557 17.1311 20.5932 18.0536 20.6294C18.6693 20.6544 19.1848 20.9476 19.5332 21.4554C20.0384 22.1935 20.3842 23.0091 20.5419 23.8946C20.5695 24.0506 20.5635 24.2205 20.5351 24.3774C20.4902 24.6309 20.3514 24.7387 20.0945 24.7654C19.29 24.849 18.4839 24.8413 17.6803 24.7714C17.2096 24.7309 16.7414 24.6662 16.2741 24.599C16.1301 24.5774 16.018 24.6085 15.9025 24.6861C15.5343 24.9344 15.2825 25.275 15.1084 25.675C15.0748 25.7517 15.0739 25.8483 15.0791 25.9345C15.1265 26.7174 15.3532 27.4417 15.793 28.0961C16.0292 28.447 16.2887 28.7772 16.6577 29.0669Z" fill="black"/>
<path d="M88.1238 21.0976C88.0764 21.1312 88.0195 21.1648 87.9704 21.2071C87.6462 21.4856 87.3918 21.8149 87.2177 22.2081C86.9625 22.7832 86.8486 23.391 86.7745 24.0092C86.7641 24.0937 86.7727 24.1799 86.7727 24.2592C87.2297 24.2592 87.6651 24.242 88.0997 24.2636C88.5376 24.286 88.9748 24.3472 89.4067 24.3903C89.6637 23.3531 88.93 21.6244 88.1238 21.0976ZM88.3368 29.0651C88.6273 28.8004 88.923 28.5556 89.1903 28.2814C89.3705 28.0969 89.5585 28.0063 89.8171 28.0279C90.2146 28.0615 90.613 28.0788 91.0113 28.1021C91.3355 28.121 91.6597 28.1391 92.0028 28.1581C91.9778 28.1934 91.9614 28.2297 91.9338 28.2547C91.5984 28.5556 91.2717 28.8668 90.9225 29.1522C90.5457 29.4609 90.0948 29.5816 89.6119 29.6307C88.8187 29.7109 88.0298 29.6221 87.2392 29.623C86.8503 29.6238 86.4727 29.5514 86.1261 29.3686C85.9442 29.2729 85.7622 29.166 85.6079 29.0315C84.8906 28.403 84.3681 27.6528 84.1732 26.6975C84.0154 25.9233 83.9697 25.1456 84.012 24.3592C84.0508 23.6522 84.1922 22.9685 84.4965 22.3253C85.0035 21.2502 85.8545 20.6656 87.0417 20.6268C87.9427 20.5975 88.8472 20.5958 89.7473 20.6337C90.3871 20.6604 90.9104 20.9811 91.2596 21.5209C91.7045 22.208 92.033 22.9513 92.2003 23.7566C92.2391 23.9411 92.2356 24.1394 92.2218 24.3291C92.2003 24.6032 92.058 24.7334 91.7804 24.7645C90.9837 24.8524 90.1862 24.8412 89.3895 24.7748C88.9265 24.736 88.4643 24.6722 88.0048 24.6032C87.8229 24.5757 87.6772 24.6119 87.5315 24.7196C87.1943 24.9688 86.9408 25.2844 86.7934 25.6706C86.7391 25.812 86.7581 25.9905 86.7744 26.1483C86.8952 27.2692 87.3892 28.2029 88.2117 28.9668C88.2385 28.9918 88.2695 29.0125 88.3368 29.0651Z" fill="black"/>
<path d="M81.8189 28.4063C82.5603 28.2416 83.2717 28.0829 83.9812 27.9252C84.0321 28.0985 84.0442 29.1374 84.0002 29.4461C83.92 29.4487 83.8347 29.4556 83.7493 29.4556C82.8914 29.4565 82.0327 29.4478 81.1748 29.459C80.7764 29.4642 80.379 29.5082 79.9806 29.5306C79.8556 29.5375 79.7289 29.5271 79.6039 29.5297C79.4719 29.5323 79.3995 29.4668 79.365 29.3435C79.2607 28.9589 79.1409 28.5778 79.0503 28.1898C78.7011 26.7051 78.608 25.198 78.6615 23.6762C78.6968 22.6554 78.7968 21.6423 78.9348 20.631C79.0271 19.9576 79.1262 19.2851 79.1935 18.6091C79.2762 17.7788 79.3297 16.9459 79.3952 16.113C79.4004 16.0406 79.4047 15.9682 79.4107 15.8656C80.304 15.8337 81.1868 15.8544 82.0896 15.8665C82.0947 15.9458 82.106 16.0096 82.1025 16.0717C82.0611 16.6761 82.037 17.2822 81.9697 17.884C81.8404 19.0437 81.6783 20.1999 81.5421 21.3587C81.3791 22.7494 81.3196 24.1444 81.3886 25.5429C81.4326 26.4293 81.5516 27.3078 81.7473 28.1752C81.7637 28.245 81.7904 28.314 81.8189 28.4063Z" fill="black"/>
<path d="M56.4346 20.971C56.4898 20.9615 56.5449 20.9434 56.601 20.9426C57.3183 20.9296 58.0365 20.89 58.7522 20.9158C59.5049 20.9425 60.2438 20.8624 60.9809 20.7486C61.5638 20.658 62.1458 20.5494 62.7209 20.4175C63.6012 20.2157 64.4487 19.9131 65.2566 19.5044C66.1688 19.0423 66.9568 18.4336 67.5276 17.5714C67.613 17.442 67.6923 17.3075 67.7621 17.1696C67.8147 17.0635 67.888 17.0152 68.0044 17.0144C68.1665 17.0126 68.3294 16.9963 68.4915 17.0023C69.1942 17.0282 69.8961 17.0627 70.5979 17.0885C70.854 17.098 71.1109 17.0903 71.3989 17.0903C71.2583 17.399 71.0885 17.6542 70.8997 17.8973C70.2573 18.7224 69.421 19.2915 68.4795 19.72C67.6078 20.1175 66.6939 20.3787 65.7584 20.5693C65.5773 20.6055 65.5747 20.6063 65.5635 20.7727C65.5101 21.5418 65.3549 22.2945 65.2066 23.0481C65.0203 23.9913 64.86 24.9371 64.847 25.9028C64.8315 27.0875 65.0195 28.2282 65.5239 29.3076C65.5359 29.3335 65.5428 29.3611 65.5601 29.4068C65.5075 29.4128 65.4687 29.4197 65.429 29.4206C65.2445 29.4257 65.06 29.4257 64.8755 29.4344C64.3875 29.4551 63.9003 29.4801 63.4123 29.5008C63.3089 29.5051 63.2054 29.4965 63.1019 29.499C62.9588 29.5016 62.864 29.4447 62.8157 29.3059C62.6777 28.9162 62.5113 28.5351 62.401 28.1376C62.1656 27.2909 62.1018 26.4253 62.1475 25.5458C62.1915 24.7009 62.3613 23.8775 62.5105 23.0489C62.626 22.4091 62.7234 21.7668 62.8269 21.1253C62.8338 21.0822 62.8278 21.0374 62.8278 20.9624C60.6982 21.1331 58.5676 21.14 56.4346 20.971Z" fill="black"/>
<path d="M54.9277 24.3642C54.9476 24.34 54.9803 24.3021 55.0105 24.2616C55.5011 23.5994 56.5745 23.5942 57.1177 24.1435C57.4428 24.472 57.4988 24.947 57.2169 25.3109C56.9919 25.6006 56.7349 25.8713 56.4668 26.1222C56.0236 26.5361 55.5589 26.9266 55.1036 27.3258C55.0821 27.3448 55.0545 27.3577 55.0183 27.381C54.9717 27.35 54.9217 27.3215 54.8769 27.2862C54.2673 26.8137 53.6845 26.3136 53.2318 25.6825C53.1163 25.5213 53.0163 25.3454 52.9335 25.166C52.7662 24.8048 52.8499 24.4271 53.1525 24.1624C53.4999 23.8581 53.8983 23.8184 54.3096 24.0012C54.5225 24.0952 54.7139 24.2366 54.9277 24.3642Z" fill="black"/>
<path d="M107.194 10.3091C107.137 10.485 107.095 10.6307 107.041 10.7729C106.739 11.5782 106.371 12.3473 105.844 13.0371C105.446 13.557 104.914 13.7665 104.292 13.8122C104.159 13.8217 104.025 13.8156 103.892 13.8096C103.823 13.8053 103.755 13.7846 103.681 13.7708C104.562 12.8784 105.427 12.0024 106.288 11.1308C106.276 11.1092 106.274 11.1014 106.269 11.098C106.264 11.0937 106.257 11.092 106.251 11.092C106.243 11.092 106.235 11.0937 106.229 11.0971C106.217 11.1049 106.204 11.1135 106.193 11.123C105.269 11.9188 104.343 12.7146 103.418 13.5096C103.413 13.5147 103.405 13.5165 103.398 13.5191C103.392 13.5216 103.385 13.5234 103.364 13.5277C103.277 13.4682 103.241 13.3656 103.241 13.2673C103.24 13.0474 103.23 12.8207 103.276 12.6086C103.46 11.7645 103.978 11.2023 104.796 10.9411C105.301 10.779 105.822 10.6695 106.336 10.535C106.571 10.4729 106.807 10.4083 107.042 10.3453C107.082 10.3341 107.122 10.3263 107.194 10.3091Z" fill="black"/>
<path d="M46.754 19.8158C46.3755 18.9389 45.7866 18.2975 44.9537 17.8776C44.9606 17.8905 44.9649 17.9078 44.9753 17.9172C44.9908 17.9328 45.0106 17.9431 45.0288 17.956C45.6082 18.3725 46.0048 18.9381 46.3341 19.5571C46.3884 19.6589 46.4169 19.7796 46.4341 19.8951C46.46 20.0615 46.3876 20.1469 46.2246 20.1158C45.9798 20.0684 45.7383 19.9994 45.4995 19.9244C44.977 19.7598 44.6442 19.3968 44.4304 18.9019C44.2778 18.5475 44.1579 18.1862 44.0648 17.812C43.9864 17.4999 43.8605 17.199 43.751 16.8826C43.7544 16.8817 43.7812 16.8697 43.8036 16.8757C44.5459 17.0835 45.2693 17.3379 45.9168 17.7681C46.2746 18.0061 46.5652 18.3018 46.729 18.7113C46.8558 19.0252 46.8558 19.345 46.8109 19.671C46.8049 19.7106 46.7807 19.7477 46.754 19.8158Z" fill="black"/>
<path d="M37.6174 38.9199C38.2382 39.6442 38.9685 40.1649 39.9583 40.3227C39.923 40.2839 39.9143 40.2667 39.9031 40.2641C39.1866 40.0968 38.6521 39.6476 38.1692 39.1277C38.0511 39.001 37.9692 38.8363 37.8925 38.6785C37.8399 38.569 37.8761 38.5026 38.0003 38.494C38.2787 38.4742 38.5598 38.4768 38.84 38.4742C39.2961 38.4699 39.641 38.6923 39.9376 39.0148C40.2196 39.3209 40.473 39.6459 40.6498 40.0253C40.8059 40.3607 40.9955 40.6745 41.268 40.9297C41.2438 40.9539 41.2344 40.972 41.2249 40.9711C40.5437 40.953 39.8661 40.9073 39.2073 40.7176C38.7711 40.5926 38.352 40.4288 38.0261 40.0934C37.7097 39.7683 37.5769 39.376 37.6174 38.9199Z" fill="black"/>
<path d="M49.7218 17.361C49.5106 17.7792 49.464 18.2163 49.3674 18.6397C49.2821 19.0156 49.1191 19.3553 48.8743 19.6459C48.5561 20.0226 48.125 20.1856 47.6405 20.2106C47.5051 20.2166 47.3784 20.1804 47.2439 20.0735C47.8465 19.3699 48.4708 18.694 49.0726 17.9991C49.0622 17.9878 49.051 17.9775 49.0407 17.9672C48.4035 18.5897 47.7655 19.213 47.1231 19.8416C47.0662 19.6959 47.0628 19.4277 47.1033 19.2018C47.1783 18.7724 47.3887 18.4319 47.7526 18.1853C48.3285 17.7956 48.9674 17.5481 49.6304 17.3559C49.6494 17.3507 49.6727 17.3576 49.7218 17.361Z" fill="black"/>
<path d="M37.0706 38.7519C36.6403 39.5736 36.2205 40.3746 35.8006 41.1747C35.8135 41.1825 35.8273 41.1893 35.8402 41.1971C36.3058 40.4487 36.7714 39.7012 37.2559 38.9244C37.2904 38.9916 37.3232 39.0304 37.3318 39.0735C37.3715 39.2761 37.4215 39.4779 37.4353 39.6831C37.456 39.9797 37.3654 40.2495 37.1913 40.4944C36.8999 40.9031 36.5214 41.223 36.1282 41.5247C35.9402 41.6679 35.7376 41.792 35.541 41.9231C35.5005 41.9498 35.454 41.9679 35.3902 41.9998C35.3902 41.786 35.3858 41.5963 35.3919 41.4075C35.404 40.9867 35.3962 40.5634 35.4428 40.1461C35.5204 39.4468 35.9308 38.9933 36.5818 38.7502C36.7318 38.6941 36.8576 38.6984 37.0706 38.7519Z" fill="black"/>
<path d="M100.775 12.8275H100.584C100.584 12.8249 100.584 12.8215 100.583 12.8188H100.768C100.77 12.8214 100.773 12.8249 100.775 12.8275Z" fill="white"/>
</g>
<defs>
<clipPath id="clip0_163_76">
<rect width="108" height="42" fill="white"/>
</clipPath>
</defs>
</svg>
